<mxfile host="app.diagrams.net">
  <diagram name="Zugangskontrolle" id="flow1">
    <mxGraphModel dx="1370" dy="793" grid="1" gridSize="10" guides="1" tooltips="1" connect="1" arrows="1" fold="1" page="1" pageScale="1" pageWidth="827" pageHeight="1169" math="0" shadow="0">
      <root>
        <mxCell id="0"/>
        <mxCell id="1" parent="0"/>
        <mxCell id="start" value="Start" style="ellipse;whiteSpace=wrap;html=1;" vertex="1" parent="1">
          <mxGeometry x="100" y="50" width="120" height="40" as="geometry"/>
        </mxCell>
        <mxCell id="step1" value="Person erscheint beim Portier" style="rounded=1;whiteSpace=wrap;html=1;" vertex="1" parent="1">
          <mxGeometry x="100" y="120" width="200" height="40" as="geometry"/>
        </mxCell>
        <mxCell id="step2" value="Portier fordert zur Identifikation auf" style="rounded=1;whiteSpace=wrap;html=1;" vertex="1" parent="1">
          <mxGeometry x="100" y="190" width="200" height="40" as="geometry"/>
        </mxCell>
        <mxCell id="decision1" value="Ist die Person Mitarbeiter?" style="rhombus;whiteSpace=wrap;html=1;" vertex="1" parent="1">
          <mxGeometry x="100" y="260" width="160" height="80" as="geometry"/>
        </mxCell>
        <mxCell id="yes1" value="Portier kontrolliert Werksausweis" style="rounded=1;whiteSpace=wrap;html=1;" vertex="1" parent="1">
          <mxGeometry x="20" y="370" width="200" height="40" as="geometry"/>
        </mxCell>
        <mxCell id="end1" value="Ende" style="ellipse;whiteSpace=wrap;html=1;" vertex="1" parent="1">
          <mxGeometry x="20" y="440" width="120" height="40" as="geometry"/>
        </mxCell>
        <mxCell id="no1" value="Besucher f체llt Besucherschein aus" style="rounded=1;whiteSpace=wrap;html=1;" vertex="1" parent="1">
          <mxGeometry x="250" y="370" width="200" height="40" as="geometry"/>
        </mxCell>
        <mxCell id="decision2" value="Daten vollst채ndig?" style="rhombus;whiteSpace=wrap;html=1;" vertex="1" parent="1">
          <mxGeometry x="250" y="440" width="160" height="80" as="geometry"/>
        </mxCell>
        <mxCell id="no2" value="Besucher erg채nzt Daten" style="rounded=1;whiteSpace=wrap;html=1;" vertex="1" parent="1">
          <mxGeometry x="400" y="530" width="200" height="40" as="geometry"/>
        </mxCell>
        <mxCell id="yes2" value="Portier gibt Besucherausweis aus" style="rounded=1;whiteSpace=wrap;html=1;" vertex="1" parent="1">
          <mxGeometry x="250" y="620" width="200" height="40" as="geometry"/>
        </mxCell>
        <mxCell id="step3" value="Portier ruft Mitarbeiter an" style="rounded=1;whiteSpace=wrap;html=1;" vertex="1" parent="1">
          <mxGeometry x="250" y="690" width="200" height="40" as="geometry"/>
        </mxCell>
        <mxCell id="step4" value="Besucher wird abgeholt" style="rounded=1;whiteSpace=wrap;html=1;" vertex="1" parent="1">
          <mxGeometry x="250" y="760" width="200" height="40" as="geometry"/>
        </mxCell>
        <mxCell id="step5" value="Mitarbeiter begleitet Besucher zur체ck" style="rounded=1;whiteSpace=wrap;html=1;" vertex="1" parent="1">
          <mxGeometry x="250" y="830" width="200" height="40" as="geometry"/>
        </mxCell>
        <mxCell id="step6" value="Besucherausweis wird abgegeben" style="rounded=1;whiteSpace=wrap;html=1;" vertex="1" parent="1">
          <mxGeometry x="250" y="900" width="200" height="40" as="geometry"/>
        </mxCell>
        <mxCell id="end2" value="Ende" style="ellipse;whiteSpace=wrap;html=1;" vertex="1" parent="1">
          <mxGeometry x="250" y="970" width="120" height="40" as="geometry"/>
        </mxCell>
      </root>
    </mxGraphModel>
  </diagram>
</mxfile>